<svg width="810" height="1186" viewBox="0 0 810 1186" fill="none" xmlns="http://www.w3.org/2000/svg">
<path fill-rule="evenodd" clip-rule="evenodd" d="M221.358 43.8828C264.727 20.984 313.82 7.10594 374.537 0.513855C388.589 -1.04743 446.182 1.20775 463.877 3.80989C549.227 16.994 627.985 57.4139 691.304 120.733C735.193 164.448 764.684 210.94 785.675 269.228C810.135 336.71 816.033 405.753 803.89 477.572C795.216 528.054 779.43 572.637 755.143 614.792C731.724 655.559 717.325 673.947 673.783 718.53C655.915 736.572 637.873 756.695 633.363 762.94C621.74 779.42 608.382 808.217 603.525 827.82C599.535 843.259 599.188 848.117 599.188 883.159L603.525 1006.24C603.525 1006.24 608.028 1046.51 589.3 1085.78C566.748 1133.48 508.981 1172.52 444.968 1183.27C423.457 1186.92 383.905 1186.92 364.822 1183.27C308.096 1172.52 261.084 1143.89 230.552 1101.91C219.623 1086.65 212.337 1065.48 212.337 1050.74C212.337 1035.99 210.082 1006.24 210.082 1006.24L212.337 901.027C212.337 846.555 208.521 824.871 193.255 792.951C180.938 766.757 172.958 756.348 139.477 722C122.824 704.826 103.394 684.182 96.6287 676.029C66.097 639.425 37.647 588.597 21.8607 542.452C5.38046 494.226 0.176183 461.786 0.00270685 408.009C-0.170769 350.762 7.9826 307.219 27.7588 257.258C45.6268 212.675 67.8318 176.939 102.874 136.345C136.181 98.1807 173.132 69.2103 221.358 43.8828ZM655.741 156.295C598.147 98.3542 526.155 61.5773 449.826 50.6484C427.621 47.5258 380.956 47.5258 357.189 50.8218C297.687 58.8017 242.348 81.3536 194.99 117.09C178.856 129.233 146.243 160.806 131.671 178.153C125.773 185.266 115.191 199.664 108.425 210.246C31.0549 329.077 28.2793 473.409 100.966 595.536C121.262 629.711 144.682 657.12 187.357 696.325C201.408 709.163 205.572 714.54 216.154 732.408C244.951 780.808 259.176 822.963 259.176 859.219V872.056H266.982C274.615 872.056 274.615 872.056 276.523 864.597C285.023 830.943 304.279 801.625 344.352 761.552L370.721 735.184L347.475 711.244C314.167 676.896 297.687 654.171 283.636 622.772C275.829 605.597 267.849 579.403 267.849 571.249C267.849 568.3 267.155 565.004 266.462 564.137C265.768 563.096 256.4 562.402 244.43 562.229C228.297 562.229 220.49 561.361 210.082 558.412C169.315 546.789 137.916 518.166 122.65 478.96C119.007 469.072 117.966 463.347 117.446 446.173C116.405 420.846 119.354 405.233 128.028 388.059L134.1 376.089L129.242 365.16C126.467 359.088 123.171 349.894 121.956 344.69C118.487 331.159 119.007 298.025 122.824 283.973C132.365 248.584 158.039 216.665 190.132 200.531C202.276 194.46 222.919 188.562 232.46 188.562H239.573L242.522 177.459C246.338 163.408 259.696 142.937 271.839 132.182C288.32 117.783 308.963 110.498 333.77 110.498C358.751 110.498 376.792 117.61 394.834 134.611L405.763 144.846L417.212 134.09C435.254 117.09 451.907 110.498 477.755 110.498C485.908 110.498 497.184 111.712 502.909 113.1C532.747 120.906 557.901 145.366 567.789 176.071L571.779 188.041L583.402 189.082C618.617 192.031 660.252 222.042 677.252 256.738C686.1 275.126 689.396 287.616 690.61 309.127C691.651 329.251 688.528 347.812 681.416 363.946L676.732 374.181L683.15 388.232C699.284 423.448 698.243 461.092 680.201 496.481C671.875 512.788 649.67 536.207 633.536 545.575C612.372 558.065 583.749 564.484 558.248 562.576L544.37 561.535L542.115 574.719C533.441 626.588 498.746 682.274 452.081 719.745L440.978 728.592L426.927 714.887C425.178 713.216 423.49 711.597 421.92 710.091C416.48 704.874 412.45 701.009 412.181 701.009C412.008 700.836 420.682 691.641 431.611 680.539C442.54 669.437 456.418 653.824 462.316 646.017C477.408 626.068 490.419 598.312 496.837 572.984C499.787 561.708 502.042 551.646 502.042 550.432C502.042 549.391 497.184 545.748 491.46 542.452C462.663 525.972 437.162 490.757 433.345 462.48C430.57 441.663 429.182 458.49 429.182 513.308C429.182 567.953 428.835 573.331 425.886 580.097C417.906 597.618 392.232 597.271 384.772 579.576C382.864 575.066 382.343 561.361 382.17 518.686C381.996 456.235 381.303 449.296 376.619 466.296C374.884 472.368 370.374 483.991 366.384 491.971C360.659 503.941 356.496 509.492 343.485 522.503C334.811 531.35 323.535 540.718 318.678 543.493C307.922 549.391 307.749 550.085 312.953 570.555C320.239 598.485 330.648 620.169 349.036 644.803C360.832 660.763 414.957 715.928 445.662 743.337C485.562 779.073 503.776 799.717 518.695 826.259C524.594 836.841 535.002 864.423 535.002 869.628C535.002 871.362 537.257 872.056 542.809 872.056H550.615V862.862C550.615 833.545 559.462 798.85 574.902 767.104C592.249 731.714 601.964 718.53 636.312 684.702C667.191 654.344 691.998 624.333 707.437 598.485C733.632 554.769 753.235 496.655 758.612 446.694C761.041 425.183 761.041 386.151 758.786 367.242C748.724 286.749 713.335 214.063 655.741 156.295ZM377.833 183.357C373.149 173.469 364.822 165.142 354.414 159.765C332.209 148.662 304.973 155.948 290.922 177.112C283.115 188.735 281.727 194.98 281.727 221.175C281.727 238.176 281.207 244.247 279.646 244.768C268.023 247.717 255.706 252.574 249.634 256.391L242.175 261.075L239.746 230.369L234.195 231.41C210.082 236.268 185.795 254.309 173.652 276.514C146.069 327.342 178.856 393.784 236.624 404.019C245.991 405.58 249.114 406.968 254.318 412.345C262.472 420.499 263.859 426.05 259.696 434.203C254.492 444.785 248.767 447.908 235.236 447.561C213.378 447.041 184.408 434.55 168.968 418.938C166.019 415.988 163.243 414.08 162.896 414.427C162.376 414.774 161.509 421.713 160.988 429.867C158.386 464.388 175.907 494.746 207.133 510.012C262.992 537.421 332.035 501.686 332.382 445.132C332.556 423.621 321.974 404.539 305.667 397.6C287.626 389.794 280.687 379.038 285.717 366.895C290.054 356.833 294.565 354.231 307.575 354.231C322.494 354.405 333.77 360.129 350.25 376.783C364.649 391.008 372.455 405.753 376.966 426.917C381.129 446.52 382.343 440.275 382.343 395.692C382.343 356.486 381.129 349.2 372.455 332.026C361.006 309.301 332.556 290.912 308.616 290.912C294.912 290.912 278.952 297.157 269.758 306.178C262.472 313.291 261.257 315.546 260.216 323.699C259.176 331.506 257.788 334.281 252.41 339.833C247.032 345.037 244.43 346.425 239.226 346.425C225.001 346.425 216.674 336.19 216.847 319.189C217.021 296.637 235.062 271.83 260.91 258.819C280.513 248.931 289.881 247.023 313.647 247.89C338.281 248.931 347.301 251.707 367.598 265.064C374.884 269.748 381.129 273.565 381.649 273.565C382.17 273.565 382.343 255.003 381.996 232.278C381.476 194.633 381.129 190.47 377.833 183.357ZM522.338 182.317C516.44 170.694 503.95 159.765 492.848 156.469C468.908 149.356 445.489 159.418 433.172 182.143C430.57 186.827 429.876 193.939 429.182 231.584C428.661 255.523 428.661 275.3 429.008 275.3C429.355 275.3 432.651 272.697 436.121 269.401C444.274 262.115 465.091 252.054 477.408 249.452C490.419 246.676 514.879 247.196 527.89 250.146C562.585 258.299 590.341 287.269 591.902 316.934C592.423 325.434 591.902 330.118 589.82 334.108C584.096 345.037 569.524 349.547 559.289 343.649C553.217 340.006 549.574 333.761 548.186 323.873C545.064 303.576 527.022 291.78 499.266 291.78C486.776 291.78 484.174 292.474 472.204 298.372C451.04 308.78 436.294 328.557 430.917 353.364C428.835 363.252 429.008 443.398 431.09 438.367C431.784 436.979 433.172 430.734 434.213 424.489C437.682 406.1 446.529 389.273 460.234 375.916C480.531 355.966 502.909 348.333 515.92 357.18C522.685 361.69 527.369 371.752 525.634 378.344C523.9 385.457 515.052 394.13 506.899 396.906C502.736 398.12 496.144 402.457 492.327 406.447C476.367 422.234 473.071 450.337 484.521 472.888C497.531 498.563 524.073 515.217 557.727 519.033C591.555 522.85 628.679 502.379 643.078 471.848C647.935 461.266 648.629 458.143 649.149 440.969C649.496 430.387 649.149 420.152 648.282 417.897C647.712 416.441 647.35 415.516 646.725 415.275C645.635 414.853 643.746 416.502 638.567 421.019C618.964 438.367 597.453 447.041 574.555 447.041C561.023 447.041 560.503 446.867 554.778 441.142C549.748 436.112 548.88 434.03 548.88 427.091C548.88 412.692 554.258 408.009 577.33 402.804C617.924 393.61 646.2 358.221 646.2 316.413C646.2 280.677 626.25 251.013 593.117 237.308C586.524 234.533 578.545 231.757 575.595 231.237L570.044 230.022L568.83 244.768C568.136 253.095 567.269 259.687 566.748 259.687C566.228 259.687 563.105 257.952 559.809 256.044C556.513 253.962 548.88 250.493 542.635 248.411C536.39 246.156 531.012 244.074 530.492 243.553C529.971 243.033 528.93 231.063 528.237 217.012C527.022 194.113 526.328 190.123 522.338 182.317ZM482.786 855.403C471.336 833.892 459.54 819.32 431.437 792.431C415.824 777.512 402.64 765.195 401.773 765.022C400.385 764.848 359.965 808.044 349.036 821.748C339.148 834.065 319.892 866.679 319.892 871.189C319.892 871.709 357.71 872.056 404.028 872.056C468.492 872.056 486.294 872.834 488.104 867.828C488.998 865.358 485.996 861.479 482.786 855.403ZM542.809 943.181C548.36 940.232 550.615 934.334 550.615 923.232V913.691H259.176V921.844C259.176 931.038 263.512 939.885 269.931 943.528C275.656 946.651 536.737 946.477 542.809 943.181ZM544.717 1076.24C550.094 1069.99 550.441 1059.24 545.411 1054.21C541.941 1050.74 539.686 1050.74 404.895 1050.74C270.105 1050.74 267.849 1050.74 264.38 1054.21C259.176 1059.41 259.869 1068.6 265.941 1075.37L270.972 1081.09H540.553L544.717 1076.24ZM441.499 1138.17C456.244 1135.39 480.704 1127.76 483.827 1125.16C484.694 1124.29 450.693 1123.6 405.763 1123.6C360.485 1123.6 327.005 1124.29 328.566 1125.16C334.464 1128.63 363.088 1137.47 373.67 1139.04C390.497 1141.81 425.018 1141.29 441.499 1138.17ZM268.308 977.616C262.785 977.616 258.308 982.094 258.308 987.616V1007.95C258.308 1013.47 262.785 1017.95 268.308 1017.95H541.048C546.571 1017.95 551.048 1013.47 551.048 1007.95V987.616C551.048 982.094 546.571 977.616 541.048 977.616H268.308Z" fill="white"/>
</svg>
