<svg width="72" height="48" viewBox="0 0 72 48" fill="none" xmlns="http://www.w3.org/2000/svg">
<path fill-rule="evenodd" clip-rule="evenodd" d="M71.875 24.125C71.875 23.375 71.75 22.75 71.5 22.25C64.75 9 51.25 0 36 0C20.625 0 7.125 9 0.375 22.25C0.125 22.75 0 23.375 0 24C0 24.75 0.125 25.375 0.375 25.875C7.125 39.125 20.625 48 36 48C51.25 48 64.75 39.125 71.5 25.875C71.75 25.375 71.875 24.75 71.875 24.125ZM25.3693 40.2549C24.5499 37.6523 24 32.9398 24 31.825V30.3797C24 26.1016 27.0804 22.575 30.8795 22.575H35.5H40.0692C43.8683 22.575 47 26.1016 47 30.3797V31.825C47 32.9899 46.3709 38.0832 45.4969 40.5925C53.9165 38.0456 61.2196 32.1684 65.625 24C60.1589 13.865 50.2319 7.25726 39.2464 6.16148C41.422 7.61736 42.8929 10.2928 42.8929 13.325C42.8929 17.95 39.5558 22.575 35.5 22.575C31.3929 22.575 28.1071 17.95 28.1071 13.325C28.1071 10.3875 29.4664 7.78482 31.5291 6.30143C20.9329 7.7384 11.519 14.2305 6.25 24C10.4708 31.8261 17.3516 37.549 25.3693 40.2549Z" fill="black"/>
</svg>
