<svg width="27" height="22" viewBox="0 0 27 22" fill="none" xmlns="http://www.w3.org/2000/svg">
<path d="M1.09477 0.217576C0.980036 0.315314 0.975786 0.336561 0.980036 0.676519C0.992784 1.55616 1.34549 2.55478 1.95741 3.43867C2.0849 3.6214 2.18689 3.77863 2.18689 3.79138C2.18689 3.80413 2.13164 3.81263 2.06365 3.81263C1.97866 3.81263 1.90642 3.85087 1.82993 3.94436C1.69395 4.10584 1.68545 4.33956 1.80018 4.76876C2.22938 6.38356 3.49572 7.73489 5.67145 8.89074C6.38536 9.26895 7.17151 9.61315 8.36986 10.0806C9.16027 10.3866 9.49597 10.5565 9.49597 10.6585C9.49597 10.7903 8.0554 10.5523 7.51147 10.3313C7.21826 10.2081 6.67857 9.92762 6.48735 9.79588C6.38536 9.72364 6.17289 9.54516 6.01566 9.40068C5.6757 9.08197 5.57796 9.02673 5.41648 9.06072C5.26775 9.09472 5.07652 9.30719 5.07652 9.43468C5.07652 9.58341 5.21251 9.76614 5.50572 10.0211C6.57234 10.9475 7.57521 11.3384 9.36849 11.5254C9.92942 11.5849 10.0357 11.6062 10.0866 11.6784C10.1206 11.7251 10.3034 11.9801 10.4988 12.2393L10.8473 12.7153L10.3076 12.7408C9.31325 12.796 8.5016 13.1445 7.78769 13.8329C7.36699 14.2408 7.04403 14.7125 6.83581 15.2225C6.34287 16.4293 6.53409 17.8656 7.32874 18.9407C7.54547 19.234 8.00866 19.7014 8.17014 19.7864C8.22113 19.8119 8.26363 19.8544 8.26363 19.8714C8.26363 19.8926 8.12339 19.9436 7.95767 19.9819C7.00578 20.2156 6.21113 20.5725 5.54397 21.074C5.22951 21.3119 5.16576 21.4054 5.16151 21.6222C5.16151 21.8049 5.32724 22.0004 5.48872 22.0004C5.62046 22.0004 5.71395 21.9494 6.03266 21.7029C6.53409 21.3119 6.95479 21.1037 7.77494 20.8403C8.79056 20.5088 9.95067 20.4748 11.4932 20.7255C11.7694 20.7723 12.6151 20.9507 13.3715 21.125C15.9467 21.7199 16.4991 21.8006 17.8037 21.8049C18.8278 21.8049 19.3122 21.7539 20.1069 21.5542C21.1438 21.2949 22.0617 20.853 22.5376 20.3856C22.8308 20.0966 23.1835 19.5824 23.3068 19.251C23.8294 17.8656 23.2558 16.2891 21.8959 15.3882C21.5645 15.1672 20.8931 14.874 20.4086 14.738C20.1409 14.6615 19.2273 14.5 18.5898 14.4151L18.3986 14.3896L18.1776 13.9349C17.5827 12.711 16.6266 11.5339 15.254 10.3398C13.6052 8.90774 13.142 8.38931 12.7213 7.49267C12.4324 6.87225 12.3346 6.4643 12.3134 5.76738C12.2794 4.75601 12.4494 4.16108 12.9125 3.6724C13.1378 3.43867 13.4182 3.2602 13.567 3.2602C13.6137 3.2602 13.8177 3.38343 14.0174 3.53641C14.2214 3.68514 14.5103 3.86787 14.6591 3.94011C14.9693 4.08884 15.8234 4.31407 16.5926 4.45005C17.043 4.53079 17.1535 4.53929 17.3065 4.49679C17.7527 4.37356 18.0247 3.86362 17.8674 3.44717C17.8419 3.38768 17.6337 3.14121 17.4042 2.90324C17.0983 2.58453 16.9368 2.37631 16.7796 2.09159C16.2144 1.06322 15.1775 0.498041 13.8517 0.498041C12.5641 0.498041 11.3232 1.20345 10.5413 2.37631C9.97191 3.23895 9.66595 4.41605 9.66595 5.76738C9.66595 6.8595 9.84018 7.6499 10.2821 8.55079C10.8218 9.6514 11.5272 10.4843 13.3205 12.1288C13.7284 12.507 14.2639 13.034 14.5103 13.3059C15.7087 14.636 16.5501 16.1913 16.9155 17.7424C16.975 17.9931 17.0133 18.0738 17.1323 18.1758C17.315 18.3373 17.4765 18.3416 17.6252 18.1843C17.7739 18.0314 17.7697 17.9209 17.6167 17.3132C17.2598 15.9449 16.5458 14.5638 15.543 13.3102C15.1308 12.7918 14.2426 11.8909 13.2355 10.956C11.7779 9.60466 11.1023 8.68252 10.7071 7.49692C10.4054 6.60028 10.3671 5.84387 10.5796 5.10872C10.7113 4.65827 10.8728 4.37356 11.183 4.04635C11.3827 3.83812 12.0372 3.36643 12.0754 3.40468C12.0839 3.41318 12.0244 3.53216 11.9394 3.66815C11.4125 4.53929 11.353 6.0181 11.7907 7.28444C12.1604 8.35531 12.7723 9.17121 14.0769 10.3441C15.22 11.3682 16.2611 12.4263 16.6351 12.9405C16.8093 13.1785 17.0898 13.5992 17.2555 13.8711L17.5615 14.3641C17.5615 14.3641 17.7164 14.6424 17.7964 14.8426C17.8765 15.0428 17.91 15.1266 17.91 15.1266L18.0799 15.6559C18.2711 16.2891 18.4029 16.9647 18.4666 17.6574C18.5218 18.2778 18.5643 18.3926 18.7641 18.4945C18.9043 18.571 19.0318 18.5328 19.1805 18.3713C19.2783 18.2651 19.2825 18.2481 19.257 17.7764C19.24 17.5087 19.2145 17.2622 19.2018 17.224C19.1805 17.1645 19.1933 17.1645 19.342 17.2155C19.7924 17.3769 20.2599 17.7381 20.3109 17.9676C20.3576 18.1716 20.2684 18.3246 20.0559 18.4053C19.8307 18.4945 19.7414 18.5923 19.7117 18.7793C19.6777 18.9705 19.8477 19.1787 20.0644 19.2212C20.3746 19.2807 20.927 18.877 21.0588 18.4903C21.1523 18.2141 21.1268 17.7891 20.995 17.5214C20.7783 17.0795 20.2174 16.6715 19.3972 16.3698C19.223 16.3061 19.0743 16.2466 19.0658 16.2423C19.0615 16.2381 18.9935 16.0086 18.9128 15.7366L18.7726 15.2352L19.0105 15.265C19.8137 15.3584 20.7953 15.6602 21.3222 15.9704C21.7344 16.2126 22.2231 16.7098 22.4229 17.0922C22.6523 17.5342 22.7246 17.8614 22.7033 18.3671C22.6863 18.7495 22.6693 18.826 22.5291 19.1107C22.3421 19.5102 22.0404 19.8246 21.6877 20.0074C21.4455 20.1306 21.369 20.1476 20.9823 20.1646C19.614 20.2198 18.0714 19.3402 16.0827 17.3684C15.0713 16.3656 12.4366 13.4589 11.608 12.4306C10.7156 11.3172 10.0399 10.1741 9.58096 8.98848C9.48747 8.75051 9.36849 8.51254 9.3175 8.4573C9.2665 8.40206 9.06253 8.26607 8.85855 8.15984C8.39961 7.90912 7.43073 7.32694 6.95904 7.01673C4.92354 5.6739 2.70957 3.47267 2.14439 2.22758C2.04665 2.0066 1.84693 1.45842 1.84693 1.40318C1.84693 1.39468 1.91067 1.43292 1.98716 1.48817C2.0594 1.54341 2.27187 1.67939 2.4546 1.79413C2.63733 1.90462 2.8498 2.0661 2.92629 2.15109C3.00278 2.23607 3.35974 2.62278 3.71244 3.01798C4.66858 4.07185 5.58646 4.90474 6.88255 5.89487C7.14177 6.09034 7.62196 6.46855 7.95342 6.73201C8.4506 7.13146 8.57809 7.2122 8.69707 7.2122C8.77356 7.2122 8.8713 7.18671 8.90955 7.15271C8.99029 7.09322 9.07103 6.91049 9.07103 6.78301C9.07103 6.61303 8.62058 6.22208 6.88255 4.89624C6.06665 4.27157 4.8938 3.2177 4.95329 3.15821C4.96179 3.14971 5.20826 3.25595 5.50147 3.39618C5.79469 3.53641 6.33862 3.79138 6.71257 3.96136C7.33299 4.24607 8.0469 4.57753 8.50585 4.79426C8.82031 4.94724 9.11352 4.78576 9.11352 4.46705C9.11352 4.22058 8.95204 4.10159 8.09365 3.71489C6.44485 2.96698 5.91792 2.71626 4.94904 2.23607C3.52547 1.52216 2.76481 1.07172 1.61746 0.260071C1.37524 0.0900921 1.25625 0.0773437 1.09477 0.217576ZM14.4551 1.33094C14.8546 1.41168 15.169 1.54766 15.5047 1.78988C15.8149 2.01085 15.9212 2.14259 16.1506 2.58028C16.2696 2.80975 16.4226 3.00948 16.7073 3.29844C16.924 3.51941 17.094 3.71064 17.0813 3.71914C17.0558 3.74464 16.2144 3.57891 15.679 3.44292C15.1053 3.29419 14.7951 3.14971 14.4891 2.88199C14.1874 2.61428 14.0217 2.52504 13.6732 2.4358C12.8955 2.23183 11.8842 2.46555 11.2 3.00523L10.9748 3.18371L11.2213 2.82675C12.0754 1.59016 13.193 1.06747 14.4551 1.33094ZM3.69545 5.38493C4.72807 6.38781 5.45473 6.96149 6.76356 7.81988C7.20126 8.10884 7.75369 8.4573 7.98741 8.59328C8.39111 8.827 8.96904 9.33694 8.8713 9.36669C8.81606 9.38793 7.49022 8.85675 6.78481 8.53379C5.16151 7.79438 3.95466 6.92324 3.24075 5.96286C2.97729 5.6059 2.71382 5.09597 2.58634 4.69227C2.51834 4.47979 2.51834 4.4373 2.56934 4.40755C2.64158 4.36506 2.62033 4.34381 3.69545 5.38493ZM11.3445 13.6034C11.5995 13.6502 11.608 13.6544 11.9777 14.0751C12.1859 14.3088 12.4111 14.551 12.4749 14.6148C12.6236 14.755 12.6236 14.7593 12.2879 14.6445C10.6263 14.0836 9.32174 14.3938 8.76931 15.4817C8.63333 15.7536 8.62483 15.7961 8.62483 16.1956C8.62483 16.6078 8.63333 16.6375 8.78631 16.9562C9.08377 17.5597 9.61071 17.9506 10.4521 18.1886C10.7878 18.2821 10.8388 18.2821 13.2992 18.2863C14.6803 18.2906 15.8319 18.2948 15.8574 18.2991C15.8872 18.2991 16.0699 18.4478 16.2611 18.6305C17.366 19.6504 18.4326 20.3431 19.5502 20.7723C19.648 20.8063 19.6607 20.8233 19.6097 20.8488C19.4312 20.9465 18.7683 21.0017 17.8037 21.0017C16.6606 20.9975 16.0104 20.9252 14.8546 20.6618C14.5146 20.581 13.8134 20.4238 13.2992 20.3048C12.2199 20.0584 11.6462 19.9564 10.6773 19.8331C9.81893 19.7226 9.56397 19.6632 9.13477 19.4507C7.55397 18.6815 6.91655 16.8075 7.6942 15.2097C8.04265 14.4915 8.95629 13.7819 9.75519 13.6077C10.0824 13.5397 10.9875 13.5354 11.3445 13.6034ZM11.4167 15.2182C11.7057 15.2734 12.4579 15.5199 13.3205 15.8344L13.6817 15.9661L14.2341 16.5695C14.5401 16.8967 14.8503 17.2452 14.931 17.3344L15.0755 17.5002L12.955 17.4874C11.1278 17.4704 10.8006 17.4577 10.5881 17.3982C9.86568 17.1857 9.41523 16.7353 9.41098 16.2168C9.41098 15.9661 9.58946 15.6092 9.80193 15.4434C10.1461 15.1715 10.7368 15.0865 11.4167 15.2182Z" fill="black"/>
<path d="M15.1013 2.29314C15.0163 2.36538 14.9823 2.44188 14.9653 2.59061C14.9441 2.77333 14.9526 2.79883 15.0928 2.93906C15.3818 3.22803 15.8025 3.04955 15.7982 2.6416C15.7982 2.2719 15.3733 2.05942 15.1013 2.29314Z" fill="black"/>
<path d="M26.1968 0.538212C25.1387 1.37961 23.5111 2.26775 20.3708 3.72531C19.4062 4.17576 17.9358 4.88542 17.4174 5.15739C16.576 5.59933 16.1426 5.89254 15.7176 6.31749C14.9995 7.0314 14.7402 7.61783 14.7402 8.53571C14.7402 8.96491 14.8252 9.19863 15.0122 9.28362C15.1779 9.36011 15.3097 9.28362 15.6241 8.94791C16.0788 8.45922 16.559 8.17026 17.9486 7.55834C19.9458 6.6787 21.1867 5.98603 22.3255 5.10639C22.8185 4.72819 23.3242 4.214 24.3143 3.10489C25.0792 2.238 25.1302 2.19126 25.5891 1.90229C25.8483 1.73656 26.0693 1.61758 26.0778 1.63882C26.0991 1.70682 25.8653 2.30599 25.6826 2.6417C25.0749 3.76356 23.6386 5.20838 22.0281 6.32599C21.0082 7.02715 19.8523 7.64757 17.9486 8.50597C16.0788 9.35161 15.7176 9.57258 15.7176 9.88705C15.7176 10.006 15.7516 10.0825 15.8408 10.1803C16.0108 10.363 16.1511 10.3502 16.4783 10.142C16.8055 9.92954 17.5491 9.55559 18.2885 9.22838C18.9982 8.91392 20.715 8.05552 21.2632 7.74106C21.9261 7.35861 22.572 6.92516 23.2179 6.42373C23.9361 5.8713 24.0423 5.77781 24.7562 5.0724C25.1897 4.6432 25.3299 4.52421 25.3724 4.56671C25.4107 4.60495 25.4022 4.6772 25.3469 4.88117C25.0622 5.93079 24.0423 7.05265 22.589 7.91529C21.3439 8.6547 19.9118 9.27087 17.7786 9.97628C17.2899 10.142 16.8267 10.312 16.7545 10.3587C16.5675 10.4735 16.4995 10.6774 16.5845 10.8772C16.6822 11.1194 16.9245 11.1874 17.1794 11.0556L17.2984 10.9919L17.2729 11.1746C17.2432 11.3829 17.3537 11.6081 17.5151 11.6676C17.6299 11.7101 18.637 11.6506 19.2702 11.5656C20.443 11.4041 21.4247 11.0174 22.1471 10.431C22.5508 10.108 22.8567 9.75956 22.8567 9.63208C22.8567 9.39411 22.5805 9.16888 22.3553 9.22838C22.2958 9.24113 22.1003 9.39411 21.9261 9.56409C21.4119 10.057 21.0082 10.2907 20.2518 10.5457C19.7759 10.7029 19.1512 10.8049 18.3735 10.8432C17.7956 10.8729 17.7744 10.8432 18.246 10.6774C20.8595 9.76381 22.6612 8.90967 23.8681 8.01728C24.9772 7.19713 25.8653 6.00303 26.1288 4.98316C26.2563 4.48597 26.2436 4.26075 26.0906 4.10352C26.0183 4.03128 25.9206 3.98028 25.8568 3.98028C25.7974 3.98028 25.7464 3.97178 25.7464 3.96753C25.7464 3.95904 25.8696 3.76356 26.0226 3.52984C26.643 2.58221 26.9745 1.66432 26.9787 0.886669C26.9787 0.219502 26.7322 0.113265 26.1968 0.538212ZM22.7335 3.67432C21.2037 5.08939 20.1966 5.70132 17.1199 7.06965C16.457 7.36286 15.9513 7.62633 15.7304 7.79206C15.6539 7.8473 15.5901 7.8813 15.5901 7.8643C15.5901 7.74956 15.9938 7.18013 16.2658 6.90817C16.6482 6.52571 17.0987 6.224 17.9061 5.8033C18.5775 5.4506 23.0267 3.30887 23.0904 3.30462C23.1159 3.30037 22.9545 3.4661 22.7335 3.67432Z" fill="black"/>
</svg>
