<svg width="41" height="34" viewBox="0 0 41 34" fill="none" xmlns="http://www.w3.org/2000/svg">
<path d="M1.15711 0.488017C0.980591 0.638385 0.974054 0.671073 0.980591 1.19409C1.0002 2.5474 1.54284 4.08376 2.48427 5.44361C2.6804 5.72473 2.8373 5.96663 2.8373 5.98624C2.8373 6.00585 2.75231 6.01893 2.64771 6.01893C2.51696 6.01893 2.40581 6.07777 2.28814 6.2216C2.07893 6.47003 2.06585 6.82961 2.24237 7.48992C2.90268 9.97425 4.85092 12.0532 8.19823 13.8315C9.29657 14.4134 10.5061 14.9429 12.3497 15.6621C13.5657 16.1328 14.0822 16.3943 14.0822 16.5512C14.0822 16.7539 11.8659 16.3878 11.0291 16.0478C10.578 15.8582 9.74767 15.4267 9.45348 15.224C9.29657 15.1129 8.96969 14.8383 8.72779 14.616C8.20477 14.1257 8.0544 14.0407 7.80597 14.093C7.57715 14.1453 7.28295 14.4722 7.28295 14.6683C7.28295 14.8972 7.49216 15.1783 7.94326 15.5705C9.58423 16.9958 11.1271 17.5972 13.8861 17.8849C14.749 17.9764 14.9125 18.0091 14.9909 18.1202C15.0432 18.1922 15.3243 18.5844 15.6251 18.9832L16.1612 19.7155L15.3309 19.7547C13.8011 19.8397 12.5524 20.3758 11.454 21.4349C10.8068 22.0625 10.3099 22.7882 9.98957 23.5727C9.23119 25.4294 9.52539 27.6392 10.7479 29.2932C11.0814 29.7443 11.794 30.4635 12.0424 30.5942C12.1209 30.6334 12.1862 30.6988 12.1862 30.725C12.1862 30.7577 11.9705 30.8361 11.7155 30.895C10.2511 31.2545 9.02853 31.8037 8.0021 32.5751C7.51831 32.9413 7.42025 33.0851 7.41371 33.4185C7.41371 33.6996 7.66868 34.0004 7.91711 34.0004C8.11978 34.0004 8.26361 33.9219 8.75394 33.5427C9.52539 32.9413 10.1726 32.6209 11.4344 32.2156C12.9969 31.7056 14.7817 31.6533 17.1549 32.0391C17.5799 32.111 18.8809 32.3856 20.0446 32.6536C24.0064 33.5689 24.8563 33.6931 26.8634 33.6996C28.439 33.6996 29.1843 33.6212 30.4069 33.3139C32.0021 32.9151 33.4142 32.2352 34.1464 31.516C34.5976 31.0715 35.1402 30.2804 35.3298 29.7705C36.1339 27.6392 35.2513 25.2137 33.1593 23.8277C32.6493 23.4877 31.6164 23.0366 30.8711 22.8274C30.4592 22.7097 29.0536 22.4613 28.0729 22.3305L27.7787 22.2913L27.4387 21.5918C26.5235 19.7089 25.0525 17.898 22.9408 16.0609C20.4042 13.8577 19.6915 13.0601 19.0443 11.6806C18.5997 10.7261 18.4494 10.0985 18.4167 9.02628C18.3644 7.4703 18.6259 6.55502 19.3385 5.80318C19.685 5.44361 20.1165 5.16902 20.3453 5.16902C20.4172 5.16902 20.731 5.35862 21.0383 5.59398C21.3521 5.8228 21.7967 6.10392 22.0255 6.21506C22.5028 6.44388 23.8168 6.79038 25.0002 6.99959C25.6932 7.1238 25.8632 7.13688 26.0985 7.0715C26.785 6.88191 27.2034 6.09738 26.9615 5.45668C26.9223 5.36516 26.6019 4.98597 26.2489 4.61986C25.7782 4.12953 25.5297 3.80918 25.2878 3.37115C24.4183 1.78902 22.8231 0.919507 20.7833 0.919507C18.8024 0.919507 16.8934 2.00477 15.6905 3.80918C14.8144 5.13634 14.3437 6.94728 14.3437 9.02628C14.3437 10.7065 14.6117 11.9225 15.2917 13.3085C16.122 15.0018 17.2072 16.2831 19.9661 18.8132C20.5938 19.3951 21.4175 20.2058 21.7967 20.6242C23.6403 22.6705 24.9348 25.0633 25.497 27.4496C25.5886 27.8353 25.6474 27.9595 25.8305 28.1164C26.1116 28.3649 26.36 28.3714 26.5888 28.1295C26.8177 27.8941 26.8111 27.7242 26.5758 26.7893C26.0266 24.6841 24.9283 22.5594 23.3854 20.6307C22.7512 19.8331 21.3848 18.4471 19.8354 17.0088C17.5929 14.9298 16.5534 13.5112 15.9454 11.6871C15.4813 10.3077 15.4224 9.14396 15.7493 8.01293C15.952 7.31993 16.2004 6.88191 16.6777 6.3785C16.9849 6.05815 17.9917 5.33247 18.0506 5.39131C18.0637 5.40438 17.9721 5.58744 17.8414 5.79665C17.0307 7.13688 16.9392 9.41201 17.6126 11.3602C18.1813 13.0078 19.1228 14.263 21.1298 16.0674C22.8885 17.643 24.4902 19.2709 25.0656 20.062C25.3336 20.4281 25.7651 21.0753 26.0201 21.4937L26.4908 22.2521C26.4908 22.2521 26.7291 22.6804 26.8522 22.9883C26.9754 23.2963 27.027 23.4253 27.027 23.4253L27.2884 24.2396C27.5826 25.2137 27.7852 26.2532 27.8833 27.3188C27.9683 28.2733 28.0337 28.4498 28.341 28.6068C28.5567 28.7244 28.7528 28.6656 28.9816 28.4172C29.132 28.2537 29.1386 28.2276 29.0993 27.5019C29.0732 27.09 29.034 26.7108 29.0143 26.652C28.9816 26.5604 29.0013 26.5604 29.2301 26.6389C29.9231 26.8873 30.6422 27.443 30.7207 27.7961C30.7926 28.1099 30.6553 28.3452 30.3284 28.4695C29.9819 28.6068 29.8446 28.7571 29.7989 29.0448C29.7466 29.339 30.0081 29.6593 30.3415 29.7247C30.8187 29.8162 31.6687 29.1951 31.8713 28.6002C32.0151 28.1753 31.9759 27.5215 31.7733 27.1096C31.4398 26.4297 30.5769 25.8021 29.3151 25.3379C29.047 25.2398 28.8182 25.1483 28.8051 25.1418C28.7986 25.1352 28.694 24.7822 28.5698 24.3638L28.354 23.5923L28.7201 23.6381C29.9558 23.7819 31.466 24.2461 32.2767 24.7233C32.9108 25.096 33.6627 25.8609 33.9699 26.4493C34.323 27.1292 34.4341 27.6326 34.4014 28.4106C34.3753 28.999 34.3491 29.1167 34.1334 29.5547C33.8457 30.1693 33.3815 30.6531 32.8389 30.9342C32.4663 31.1238 32.3486 31.1499 31.7536 31.1761C29.6485 31.2611 27.2753 29.9078 24.2156 26.8743C22.6597 25.3314 18.6063 20.8596 17.3314 19.2774C15.9585 17.5645 14.919 15.8059 14.2129 13.9819C14.0691 13.6158 13.8861 13.2496 13.8076 13.1647C13.7291 13.0797 13.4153 12.8705 13.1015 12.707C12.3955 12.3213 10.9049 11.4256 10.1792 10.9484C7.0476 8.88245 3.64144 5.49591 2.77193 3.58036C2.62156 3.2404 2.31429 2.39703 2.31429 2.31204C2.31429 2.29897 2.41235 2.35781 2.53003 2.4428C2.64117 2.52779 2.96806 2.73699 3.24918 2.91351C3.5303 3.08349 3.85719 3.33193 3.97487 3.46268C4.09255 3.59343 4.64171 4.18837 5.18435 4.79637C6.65533 6.41773 8.06748 7.69912 10.0615 9.22241C10.4603 9.52315 11.199 10.105 11.709 10.5103C12.4739 11.1249 12.67 11.2491 12.8531 11.2491C12.9708 11.2491 13.1211 11.2099 13.18 11.1576C13.3042 11.066 13.4284 10.7849 13.4284 10.5888C13.4284 10.3273 12.7354 9.72582 10.0615 7.68605C8.80624 6.725 7.00183 5.10365 7.09336 5.01212C7.10644 4.99904 7.48562 5.16249 7.93673 5.37823C8.38783 5.59398 9.22466 5.98624 9.79998 6.24775C10.7545 6.68578 11.8528 7.19572 12.5589 7.52914C13.0427 7.7645 13.4938 7.51607 13.4938 7.02574C13.4938 6.64655 13.2454 6.46349 11.9247 5.86856C9.3881 4.71792 8.57742 4.3322 7.08682 3.59343C4.89669 2.4951 3.72643 1.8021 1.96125 0.553394C1.5886 0.291885 1.40554 0.272272 1.15711 0.488017ZM21.7117 2.2009C22.3262 2.32512 22.81 2.53432 23.3265 2.90697C23.8038 3.24693 23.9672 3.4496 24.3203 4.12299C24.5033 4.47603 24.7387 4.7833 25.1767 5.22786C25.5101 5.56783 25.7716 5.86202 25.752 5.8751C25.7128 5.91432 24.4183 5.65935 23.5946 5.45015C22.712 5.22133 22.2347 4.99904 21.764 4.58717C21.2998 4.17529 21.0449 4.038 20.5088 3.90071C19.3124 3.5869 17.7564 3.94647 16.7038 4.77676L16.3573 5.05135L16.7365 4.50218C18.0506 2.5997 19.77 1.79556 21.7117 2.2009ZM5.15819 8.43789C6.74686 9.98079 7.86481 10.8634 9.87843 12.184C10.5518 12.6286 11.4017 13.1647 11.7613 13.3739C12.3824 13.7334 13.2715 14.518 13.1211 14.5637C13.0361 14.5964 10.9964 13.7792 9.91112 13.2823C7.41371 12.1448 5.557 10.8045 4.45866 9.32702C4.05332 8.77785 3.64798 7.99332 3.45185 7.37224C3.34725 7.04535 3.34725 6.97997 3.4257 6.93421C3.53684 6.86883 3.50415 6.83614 5.15819 8.43789ZM16.9261 21.0818C17.3184 21.1538 17.3314 21.1603 17.9002 21.8075C18.2206 22.1671 18.5671 22.5397 18.6651 22.6378C18.8939 22.8536 18.8939 22.8601 18.3775 22.6836C15.8212 21.8206 13.8141 22.2979 12.9642 23.9715C12.755 24.3899 12.742 24.4553 12.742 25.0698C12.742 25.704 12.755 25.7498 12.9904 26.2401C13.448 27.1685 14.2587 27.7699 15.5532 28.136C16.0696 28.2799 16.1481 28.2799 19.9334 28.2864C22.0582 28.2929 23.8299 28.2995 23.8691 28.306C23.9149 28.306 24.196 28.5348 24.4902 28.816C26.19 30.385 27.831 31.4507 29.5504 32.111C29.7008 32.1633 29.7204 32.1894 29.642 32.2287C29.3674 32.379 28.3475 32.464 26.8634 32.464C25.1048 32.4575 24.1045 32.3463 22.3262 31.941C21.8032 31.8168 20.7245 31.5749 19.9334 31.3918C18.2729 31.0126 17.3903 30.8557 15.8997 30.6661C14.579 30.4962 14.1868 30.4046 13.5265 30.0777C11.0944 28.8944 10.1138 26.0113 11.3102 23.5531C11.8463 22.4482 13.2519 21.3564 14.481 21.0884C14.9844 20.9838 16.3769 20.9772 16.9261 21.0818ZM17.0372 23.5662C17.4818 23.6512 18.639 24.0303 19.9661 24.5141L20.5218 24.7168L21.3717 25.6452C21.8425 26.1486 22.3197 26.6847 22.4439 26.822L22.6662 27.0769L19.4039 27.0573C16.5927 27.0312 16.0893 27.0115 15.7624 26.92C14.651 26.5931 13.958 25.9001 13.9514 25.1025C13.9514 24.7168 14.226 24.1676 14.5529 23.9127C15.0825 23.4943 15.9912 23.3635 17.0372 23.5662Z" fill="black"/>
<path d="M22.7061 3.68137C22.5753 3.79251 22.523 3.91019 22.4969 4.13901C22.4642 4.42013 22.4773 4.45936 22.693 4.6751C23.1376 5.11967 23.7848 4.84508 23.7783 4.21746C23.7783 3.64868 23.1245 3.3218 22.7061 3.68137Z" fill="black"/>
<path d="M39.7761 0.981069C38.1482 2.27554 35.6442 3.64192 30.8129 5.88436C29.3288 6.57736 27.0668 7.66916 26.2692 8.08757C24.9747 8.76749 24.3078 9.2186 23.6541 9.87237C22.5492 10.9707 22.1504 11.8729 22.1504 13.2851C22.1504 13.9454 22.2811 14.3049 22.5688 14.4357C22.8238 14.5534 23.0264 14.4357 23.5102 13.9192C24.2098 13.1674 24.9485 12.7228 27.0864 11.7814C30.1591 10.4281 32.0681 9.36243 33.8202 8.00912C34.5786 7.42726 35.3566 6.6362 36.8799 4.92985C38.0567 3.59616 38.1351 3.52424 38.8412 3.07968C39.24 2.82471 39.58 2.64165 39.593 2.67434C39.6257 2.77894 39.2661 3.70076 38.985 4.21724C38.0501 5.9432 35.8404 8.16602 33.3626 9.88544C31.7935 10.9642 30.0153 11.9187 27.0864 13.2393C24.2098 14.5403 23.6541 14.8803 23.6541 15.3641C23.6541 15.5471 23.7064 15.6648 23.8437 15.8152C24.1052 16.0963 24.3209 16.0767 24.8243 15.7563C25.3277 15.4294 26.4718 14.8541 27.6094 14.3507C28.7012 13.8669 31.3424 12.5463 32.1858 12.0625C33.2057 11.4741 34.1994 10.8073 35.1931 10.0358C36.298 9.18591 36.4615 9.04208 37.5598 7.95682C38.2266 7.29651 38.4424 7.11345 38.5078 7.17883C38.5666 7.23767 38.5535 7.34881 38.4685 7.66262C38.0305 9.27744 36.4615 11.0034 34.2256 12.3306C32.31 13.4681 30.1068 14.4161 26.8249 15.5013C26.073 15.7563 25.3604 16.0178 25.2493 16.0897C24.9616 16.2663 24.857 16.5801 24.9878 16.8873C25.1381 17.26 25.5108 17.3646 25.903 17.1619L26.0861 17.0639L26.0469 17.345C26.0011 17.6653 26.1711 18.0118 26.4195 18.1034C26.596 18.1687 28.1455 18.0772 29.1196 17.9465C30.924 17.698 32.4342 17.1031 33.5456 16.2009C34.1667 15.704 34.6374 15.1679 34.6374 14.9718C34.6374 14.6057 34.2125 14.2592 33.866 14.3507C33.7745 14.3703 33.4737 14.6057 33.2057 14.8672C32.4146 15.6256 31.7935 15.9851 30.6298 16.3774C29.8976 16.6193 28.9365 16.7762 27.7401 16.835C26.851 16.8808 26.8183 16.835 27.544 16.5801C31.5647 15.1745 34.3367 13.8604 36.1934 12.4875C37.8998 11.2257 39.2661 9.38858 39.6715 7.81952C39.8676 7.05461 39.848 6.70811 39.6126 6.46622C39.5015 6.35507 39.3511 6.27662 39.2531 6.27662C39.1615 6.27662 39.0831 6.26355 39.0831 6.25701C39.0831 6.24393 39.2727 5.9432 39.508 5.58362C40.4625 4.12571 40.9725 2.71356 40.979 1.51716C40.979 0.49074 40.5998 0.327297 39.7761 0.981069ZM34.4478 5.80591C32.0943 7.98297 30.5448 8.9244 25.8115 11.0295C24.7916 11.4806 24.0136 11.886 23.6737 12.141C23.556 12.2259 23.4579 12.2782 23.4579 12.2521C23.4579 12.0756 24.079 11.1995 24.4974 10.7811C25.0858 10.1927 25.7788 9.72854 27.021 9.0813C28.054 8.53867 34.8989 5.24366 34.997 5.23712C35.0362 5.23059 34.7878 5.48556 34.4478 5.80591Z" fill="black"/>
</svg>
